<svg id="visual" viewBox="0 0 900 600" width="900" height="600" xmlns="http://www.w3.org/2000/svg" xmlns:xlink="http://www.w3.org/1999/xlink" version="1.1"><path d="M0 37L13.7 34C27.3 31 54.7 25 82 24C109.3 23 136.7 27 163.8 30C191 33 218 35 245.2 37C272.3 39 299.7 41 327 40C354.3 39 381.7 35 409 31C436.3 27 463.7 23 491 26C518.3 29 545.7 39 573 44C600.3 49 627.7 49 654.8 48C682 47 709 45 736.2 41C763.3 37 790.7 31 818 31C845.3 31 872.7 37 886.3 40L900 43L900 0L886.3 0C872.7 0 845.3 0 818 0C790.7 0 763.3 0 736.2 0C709 0 682 0 654.8 0C627.7 0 600.3 0 573 0C545.7 0 518.3 0 491 0C463.7 0 436.3 0 409 0C381.7 0 354.3 0 327 0C299.7 0 272.3 0 245.2 0C218 0 191 0 163.8 0C136.7 0 109.3 0 82 0C54.7 0 27.3 0 13.7 0L0 0Z" fill="#6198ff"></path><path d="M0 73L13.7 70C27.3 67 54.7 61 82 58C109.3 55 136.7 55 163.8 55C191 55 218 55 245.2 57C272.3 59 299.7 63 327 67C354.3 71 381.7 75 409 69C436.3 63 463.7 47 491 49C518.3 51 545.7 71 573 80C600.3 89 627.7 87 654.8 84C682 81 709 77 736.2 72C763.3 67 790.7 61 818 64C845.3 67 872.7 79 886.3 85L900 91L900 41L886.3 38C872.7 35 845.3 29 818 29C790.7 29 763.3 35 736.2 39C709 43 682 45 654.8 46C627.7 47 600.3 47 573 42C545.7 37 518.3 27 491 24C463.7 21 436.3 25 409 29C381.7 33 354.3 37 327 38C299.7 39 272.3 37 245.2 35C218 33 191 31 163.8 28C136.7 25 109.3 21 82 22C54.7 23 27.3 29 13.7 32L0 35Z" fill="#548fff"></path><path d="M0 133L13.7 129C27.3 125 54.7 117 82 115C109.3 113 136.7 117 163.8 118C191 119 218 117 245.2 117C272.3 117 299.7 119 327 127C354.3 135 381.7 149 409 146C436.3 143 463.7 123 491 118C518.3 113 545.7 123 573 124C600.3 125 627.7 117 654.8 111C682 105 709 101 736.2 104C763.3 107 790.7 117 818 130C845.3 143 872.7 159 886.3 167L900 175L900 89L886.3 83C872.7 77 845.3 65 818 62C790.7 59 763.3 65 736.2 70C709 75 682 79 654.8 82C627.7 85 600.3 87 573 78C545.7 69 518.3 49 491 47C463.7 45 436.3 61 409 67C381.7 73 354.3 69 327 65C299.7 61 272.3 57 245.2 55C218 53 191 53 163.8 53C136.7 53 109.3 53 82 56C54.7 59 27.3 65 13.7 68L0 71Z" fill="#4686ff"></path><path d="M0 217L13.7 210C27.3 203 54.7 189 82 196C109.3 203 136.7 231 163.8 250C191 269 218 279 245.2 274C272.3 269 299.7 249 327 242C354.3 235 381.7 241 409 233C436.3 225 463.7 203 491 194C518.3 185 545.7 189 573 195C600.3 201 627.7 209 654.8 213C682 217 709 217 736.2 230C763.3 243 790.7 269 818 282C845.3 295 872.7 295 886.3 295L900 295L900 173L886.3 165C872.7 157 845.3 141 818 128C790.7 115 763.3 105 736.2 102C709 99 682 103 654.8 109C627.7 115 600.3 123 573 122C545.7 121 518.3 111 491 116C463.7 121 436.3 141 409 144C381.7 147 354.3 133 327 125C299.7 117 272.3 115 245.2 115C218 115 191 117 163.8 116C136.7 115 109.3 111 82 113C54.7 115 27.3 123 13.7 127L0 131Z" fill="#387dff"></path><path d="M0 229L13.7 225C27.3 221 54.7 213 82 223C109.3 233 136.7 261 163.8 280C191 299 218 309 245.2 305C272.3 301 299.7 283 327 274C354.3 265 381.7 265 409 254C436.3 243 463.7 221 491 213C518.3 205 545.7 211 573 219C600.3 227 627.7 237 654.8 243C682 249 709 251 736.2 263C763.3 275 790.7 297 818 307C845.3 317 872.7 315 886.3 314L900 313L900 293L886.3 293C872.7 293 845.3 293 818 280C790.7 267 763.3 241 736.2 228C709 215 682 215 654.8 211C627.7 207 600.3 199 573 193C545.7 187 518.3 183 491 192C463.7 201 436.3 223 409 231C381.7 239 354.3 233 327 240C299.7 247 272.3 267 245.2 272C218 277 191 267 163.8 248C136.7 229 109.3 201 82 194C54.7 187 27.3 201 13.7 208L0 215Z" fill="#2874ff"></path><path d="M0 247L13.7 242C27.3 237 54.7 227 82 238C109.3 249 136.7 281 163.8 300C191 319 218 325 245.2 320C272.3 315 299.7 299 327 290C354.3 281 381.7 279 409 269C436.3 259 463.7 241 491 233C518.3 225 545.7 227 573 233C600.3 239 627.7 249 654.8 258C682 267 709 275 736.2 287C763.3 299 790.7 315 818 327C845.3 339 872.7 347 886.3 351L900 355L900 311L886.3 312C872.7 313 845.3 315 818 305C790.7 295 763.3 273 736.2 261C709 249 682 247 654.8 241C627.7 235 600.3 225 573 217C545.7 209 518.3 203 491 211C463.7 219 436.3 241 409 252C381.7 263 354.3 263 327 272C299.7 281 272.3 299 245.2 303C218 307 191 297 163.8 278C136.7 259 109.3 231 82 221C54.7 211 27.3 219 13.7 223L0 227Z" fill="#126bff"></path><path d="M0 265L13.7 260C27.3 255 54.7 245 82 258C109.3 271 136.7 307 163.8 326C191 345 218 347 245.2 339C272.3 331 299.7 313 327 303C354.3 293 381.7 291 409 283C436.3 275 463.7 261 491 253C518.3 245 545.7 243 573 249C600.3 255 627.7 269 654.8 279C682 289 709 295 736.2 305C763.3 315 790.7 329 818 340C845.3 351 872.7 359 886.3 363L900 367L900 353L886.3 349C872.7 345 845.3 337 818 325C790.7 313 763.3 297 736.2 285C709 273 682 265 654.8 256C627.7 247 600.3 237 573 231C545.7 225 518.3 223 491 231C463.7 239 436.3 257 409 267C381.7 277 354.3 279 327 288C299.7 297 272.3 313 245.2 318C218 323 191 317 163.8 298C136.7 279 109.3 247 82 236C54.7 225 27.3 235 13.7 240L0 245Z" fill="#0064f9"></path><path d="M0 343L13.7 336C27.3 329 54.7 315 82 331C109.3 347 136.7 393 163.8 410C191 427 218 415 245.2 398C272.3 381 299.7 359 327 351C354.3 343 381.7 349 409 348C436.3 347 463.7 339 491 331C518.3 323 545.7 315 573 315C600.3 315 627.7 323 654.8 337C682 351 709 371 736.2 379C763.3 387 790.7 383 818 387C845.3 391 872.7 403 886.3 409L900 415L900 365L886.3 361C872.7 357 845.3 349 818 338C790.7 327 763.3 313 736.2 303C709 293 682 287 654.8 277C627.7 267 600.3 253 573 247C545.7 241 518.3 243 491 251C463.7 259 436.3 273 409 281C381.7 289 354.3 291 327 301C299.7 311 272.3 329 245.2 337C218 345 191 343 163.8 324C136.7 305 109.3 269 82 256C54.7 243 27.3 253 13.7 258L0 263Z" fill="#005fec"></path><path d="M0 397L13.7 389C27.3 381 54.7 365 82 379C109.3 393 136.7 437 163.8 451C191 465 218 449 245.2 434C272.3 419 299.7 405 327 396C354.3 387 381.7 383 409 379C436.3 375 463.7 371 491 367C518.3 363 545.7 359 573 356C600.3 353 627.7 351 654.8 366C682 381 709 413 736.2 423C763.3 433 790.7 421 818 421C845.3 421 872.7 433 886.3 439L900 445L900 413L886.3 407C872.7 401 845.3 389 818 385C790.7 381 763.3 385 736.2 377C709 369 682 349 654.8 335C627.7 321 600.3 313 573 313C545.7 313 518.3 321 491 329C463.7 337 436.3 345 409 346C381.7 347 354.3 341 327 349C299.7 357 272.3 379 245.2 396C218 413 191 425 163.8 408C136.7 391 109.3 345 82 329C54.7 313 27.3 327 13.7 334L0 341Z" fill="#005ae0"></path><path d="M0 433L13.7 425C27.3 417 54.7 401 82 414C109.3 427 136.7 469 163.8 480C191 491 218 471 245.2 457C272.3 443 299.7 435 327 429C354.3 423 381.7 419 409 415C436.3 411 463.7 407 491 402C518.3 397 545.7 391 573 388C600.3 385 627.7 385 654.8 398C682 411 709 437 736.2 444C763.3 451 790.7 439 818 440C845.3 441 872.7 455 886.3 462L900 469L900 443L886.3 437C872.7 431 845.3 419 818 419C790.7 419 763.3 431 736.2 421C709 411 682 379 654.8 364C627.7 349 600.3 351 573 354C545.7 357 518.3 361 491 365C463.7 369 436.3 373 409 377C381.7 381 354.3 385 327 394C299.7 403 272.3 417 245.2 432C218 447 191 463 163.8 449C136.7 435 109.3 391 82 377C54.7 363 27.3 379 13.7 387L0 395Z" fill="#0055d3"></path><path d="M0 541L13.7 541C27.3 541 54.7 541 82 545C109.3 549 136.7 557 163.8 562C191 567 218 569 245.2 567C272.3 565 299.7 559 327 557C354.3 555 381.7 557 409 559C436.3 561 463.7 563 491 560C518.3 557 545.7 549 573 548C600.3 547 627.7 553 654.8 556C682 559 709 559 736.2 554C763.3 549 790.7 539 818 542C845.3 545 872.7 561 886.3 569L900 577L900 467L886.3 460C872.7 453 845.3 439 818 438C790.7 437 763.3 449 736.2 442C709 435 682 409 654.8 396C627.7 383 600.3 383 573 386C545.7 389 518.3 395 491 400C463.7 405 436.3 409 409 413C381.7 417 354.3 421 327 427C299.7 433 272.3 441 245.2 455C218 469 191 489 163.8 478C136.7 467 109.3 425 82 412C54.7 399 27.3 415 13.7 423L0 431Z" fill="#0051c7"></path><path d="M0 601L13.7 601C27.3 601 54.7 601 82 601C109.3 601 136.7 601 163.8 601C191 601 218 601 245.2 601C272.3 601 299.7 601 327 601C354.3 601 381.7 601 409 601C436.3 601 463.7 601 491 601C518.3 601 545.7 601 573 601C600.3 601 627.7 601 654.8 601C682 601 709 601 736.2 601C763.3 601 790.7 601 818 601C845.3 601 872.7 601 886.3 601L900 601L900 575L886.3 567C872.7 559 845.3 543 818 540C790.7 537 763.3 547 736.2 552C709 557 682 557 654.8 554C627.7 551 600.3 545 573 546C545.7 547 518.3 555 491 558C463.7 561 436.3 559 409 557C381.7 555 354.3 553 327 555C299.7 557 272.3 563 245.2 565C218 567 191 565 163.8 560C136.7 555 109.3 547 82 543C54.7 539 27.3 539 13.7 539L0 539Z" fill="#004cbb"></path></svg>